<svg xmlns="http://www.w3.org/2000/svg" xmlns:xlink="http://www.w3.org/1999/xlink" width="512" height="512" viewBox="0 0 512 512">
  <defs>
    <linearGradient id="bg-grad" x1="52.61679781214721%" y1="99.9314767377287%" x2="47.38320218785279%" y2="0.0685232622713059%">
        <stop offset="0%" stop-color="#262626"/>
        <stop offset="100%" stop-color="#757575"/>
      </linearGradient>
    <clipPath id="canvas-clip">
      <rect width="512" height="512" rx="94" ry="94"/>
    </clipPath>
  </defs>
  <rect width="512" height="512" rx="94" ry="94" fill="url(#bg-grad)" stroke="#F98737" stroke-width="8" clip-path="url(#canvas-clip)"/>
  <g clip-path="url(#canvas-clip)">
    <g transform="rotate(0, 256, 256)">
      <g transform="translate(94 92) scale(13.666666666666666 13.666666666666666) translate(0 0)"><g fill="none" stroke="#000000" stroke-linecap="round" stroke-linejoin="round" stroke-width="2"><path d="M22 12.5V6a2 2 0 0 0-2-2H4a2 2 0 0 0-2 2v12c0 1.1.9 2 2 2h7.5"/><path d="m22 7l-8.97 5.7a1.94 1.94 0 0 1-2.06 0L2 7m16 14a3 3 0 1 0 0-6a3 3 0 0 0 0 6"/><circle cx="18" cy="18" r="3"/><path d="m22 22l-1.5-1.5"/></g></g><g transform="translate(94 93) scale(13.666666666666666 13.666666666666666) translate(0 0)"><g fill="none" stroke="#000000" stroke-linecap="round" stroke-linejoin="round" stroke-width="2"><path d="M22 12.5V6a2 2 0 0 0-2-2H4a2 2 0 0 0-2 2v12c0 1.1.9 2 2 2h7.5"/><path d="m22 7l-8.97 5.7a1.94 1.94 0 0 1-2.06 0L2 7m16 14a3 3 0 1 0 0-6a3 3 0 0 0 0 6"/><circle cx="18" cy="18" r="3"/><path d="m22 22l-1.5-1.5"/></g></g><g transform="translate(93 94) scale(13.666666666666666 13.666666666666666) translate(0 0)"><g fill="none" stroke="#000000" stroke-linecap="round" stroke-linejoin="round" stroke-width="2"><path d="M22 12.5V6a2 2 0 0 0-2-2H4a2 2 0 0 0-2 2v12c0 1.1.9 2 2 2h7.5"/><path d="m22 7l-8.97 5.7a1.94 1.94 0 0 1-2.06 0L2 7m16 14a3 3 0 1 0 0-6a3 3 0 0 0 0 6"/><circle cx="18" cy="18" r="3"/><path d="m22 22l-1.5-1.5"/></g></g><g transform="translate(92 94) scale(13.666666666666666 13.666666666666666) translate(0 0)"><g fill="none" stroke="#000000" stroke-linecap="round" stroke-linejoin="round" stroke-width="2"><path d="M22 12.5V6a2 2 0 0 0-2-2H4a2 2 0 0 0-2 2v12c0 1.1.9 2 2 2h7.5"/><path d="m22 7l-8.97 5.7a1.94 1.94 0 0 1-2.06 0L2 7m16 14a3 3 0 1 0 0-6a3 3 0 0 0 0 6"/><circle cx="18" cy="18" r="3"/><path d="m22 22l-1.5-1.5"/></g></g><g transform="translate(91 94) scale(13.666666666666666 13.666666666666666) translate(0 0)"><g fill="none" stroke="#000000" stroke-linecap="round" stroke-linejoin="round" stroke-width="2"><path d="M22 12.5V6a2 2 0 0 0-2-2H4a2 2 0 0 0-2 2v12c0 1.1.9 2 2 2h7.5"/><path d="m22 7l-8.97 5.7a1.94 1.94 0 0 1-2.06 0L2 7m16 14a3 3 0 1 0 0-6a3 3 0 0 0 0 6"/><circle cx="18" cy="18" r="3"/><path d="m22 22l-1.5-1.5"/></g></g><g transform="translate(90 93) scale(13.666666666666666 13.666666666666666) translate(0 0)"><g fill="none" stroke="#000000" stroke-linecap="round" stroke-linejoin="round" stroke-width="2"><path d="M22 12.5V6a2 2 0 0 0-2-2H4a2 2 0 0 0-2 2v12c0 1.1.9 2 2 2h7.5"/><path d="m22 7l-8.97 5.7a1.94 1.94 0 0 1-2.06 0L2 7m16 14a3 3 0 1 0 0-6a3 3 0 0 0 0 6"/><circle cx="18" cy="18" r="3"/><path d="m22 22l-1.5-1.5"/></g></g><g transform="translate(90 92) scale(13.666666666666666 13.666666666666666) translate(0 0)"><g fill="none" stroke="#000000" stroke-linecap="round" stroke-linejoin="round" stroke-width="2"><path d="M22 12.5V6a2 2 0 0 0-2-2H4a2 2 0 0 0-2 2v12c0 1.1.9 2 2 2h7.5"/><path d="m22 7l-8.97 5.7a1.94 1.94 0 0 1-2.06 0L2 7m16 14a3 3 0 1 0 0-6a3 3 0 0 0 0 6"/><circle cx="18" cy="18" r="3"/><path d="m22 22l-1.5-1.5"/></g></g><g transform="translate(90 91) scale(13.666666666666666 13.666666666666666) translate(0 0)"><g fill="none" stroke="#000000" stroke-linecap="round" stroke-linejoin="round" stroke-width="2"><path d="M22 12.5V6a2 2 0 0 0-2-2H4a2 2 0 0 0-2 2v12c0 1.1.9 2 2 2h7.5"/><path d="m22 7l-8.97 5.7a1.94 1.94 0 0 1-2.06 0L2 7m16 14a3 3 0 1 0 0-6a3 3 0 0 0 0 6"/><circle cx="18" cy="18" r="3"/><path d="m22 22l-1.5-1.5"/></g></g><g transform="translate(91 90) scale(13.666666666666666 13.666666666666666) translate(0 0)"><g fill="none" stroke="#000000" stroke-linecap="round" stroke-linejoin="round" stroke-width="2"><path d="M22 12.5V6a2 2 0 0 0-2-2H4a2 2 0 0 0-2 2v12c0 1.1.9 2 2 2h7.5"/><path d="m22 7l-8.97 5.7a1.94 1.94 0 0 1-2.06 0L2 7m16 14a3 3 0 1 0 0-6a3 3 0 0 0 0 6"/><circle cx="18" cy="18" r="3"/><path d="m22 22l-1.5-1.5"/></g></g><g transform="translate(92 90) scale(13.666666666666666 13.666666666666666) translate(0 0)"><g fill="none" stroke="#000000" stroke-linecap="round" stroke-linejoin="round" stroke-width="2"><path d="M22 12.5V6a2 2 0 0 0-2-2H4a2 2 0 0 0-2 2v12c0 1.1.9 2 2 2h7.5"/><path d="m22 7l-8.97 5.7a1.94 1.94 0 0 1-2.06 0L2 7m16 14a3 3 0 1 0 0-6a3 3 0 0 0 0 6"/><circle cx="18" cy="18" r="3"/><path d="m22 22l-1.5-1.5"/></g></g><g transform="translate(93 90) scale(13.666666666666666 13.666666666666666) translate(0 0)"><g fill="none" stroke="#000000" stroke-linecap="round" stroke-linejoin="round" stroke-width="2"><path d="M22 12.5V6a2 2 0 0 0-2-2H4a2 2 0 0 0-2 2v12c0 1.1.9 2 2 2h7.5"/><path d="m22 7l-8.97 5.7a1.94 1.94 0 0 1-2.06 0L2 7m16 14a3 3 0 1 0 0-6a3 3 0 0 0 0 6"/><circle cx="18" cy="18" r="3"/><path d="m22 22l-1.5-1.5"/></g></g><g transform="translate(94 91) scale(13.666666666666666 13.666666666666666) translate(0 0)"><g fill="none" stroke="#000000" stroke-linecap="round" stroke-linejoin="round" stroke-width="2"><path d="M22 12.5V6a2 2 0 0 0-2-2H4a2 2 0 0 0-2 2v12c0 1.1.9 2 2 2h7.5"/><path d="m22 7l-8.97 5.7a1.94 1.94 0 0 1-2.06 0L2 7m16 14a3 3 0 1 0 0-6a3 3 0 0 0 0 6"/><circle cx="18" cy="18" r="3"/><path d="m22 22l-1.5-1.5"/></g></g><g transform="translate(93 92) scale(13.666666666666666 13.666666666666666) translate(0 0)"><g fill="none" stroke="#000000" stroke-linecap="round" stroke-linejoin="round" stroke-width="2"><path d="M22 12.5V6a2 2 0 0 0-2-2H4a2 2 0 0 0-2 2v12c0 1.1.9 2 2 2h7.5"/><path d="m22 7l-8.97 5.7a1.94 1.94 0 0 1-2.06 0L2 7m16 14a3 3 0 1 0 0-6a3 3 0 0 0 0 6"/><circle cx="18" cy="18" r="3"/><path d="m22 22l-1.5-1.5"/></g></g><g transform="translate(93 93) scale(13.666666666666666 13.666666666666666) translate(0 0)"><g fill="none" stroke="#000000" stroke-linecap="round" stroke-linejoin="round" stroke-width="2"><path d="M22 12.5V6a2 2 0 0 0-2-2H4a2 2 0 0 0-2 2v12c0 1.1.9 2 2 2h7.5"/><path d="m22 7l-8.97 5.7a1.94 1.94 0 0 1-2.06 0L2 7m16 14a3 3 0 1 0 0-6a3 3 0 0 0 0 6"/><circle cx="18" cy="18" r="3"/><path d="m22 22l-1.5-1.5"/></g></g><g transform="translate(92 93) scale(13.666666666666666 13.666666666666666) translate(0 0)"><g fill="none" stroke="#000000" stroke-linecap="round" stroke-linejoin="round" stroke-width="2"><path d="M22 12.5V6a2 2 0 0 0-2-2H4a2 2 0 0 0-2 2v12c0 1.1.9 2 2 2h7.5"/><path d="m22 7l-8.97 5.7a1.94 1.94 0 0 1-2.06 0L2 7m16 14a3 3 0 1 0 0-6a3 3 0 0 0 0 6"/><circle cx="18" cy="18" r="3"/><path d="m22 22l-1.5-1.5"/></g></g><g transform="translate(91 92) scale(13.666666666666666 13.666666666666666) translate(0 0)"><g fill="none" stroke="#000000" stroke-linecap="round" stroke-linejoin="round" stroke-width="2"><path d="M22 12.5V6a2 2 0 0 0-2-2H4a2 2 0 0 0-2 2v12c0 1.1.9 2 2 2h7.5"/><path d="m22 7l-8.97 5.7a1.94 1.94 0 0 1-2.06 0L2 7m16 14a3 3 0 1 0 0-6a3 3 0 0 0 0 6"/><circle cx="18" cy="18" r="3"/><path d="m22 22l-1.5-1.5"/></g></g><g transform="translate(91 91) scale(13.666666666666666 13.666666666666666) translate(0 0)"><g fill="none" stroke="#000000" stroke-linecap="round" stroke-linejoin="round" stroke-width="2"><path d="M22 12.5V6a2 2 0 0 0-2-2H4a2 2 0 0 0-2 2v12c0 1.1.9 2 2 2h7.5"/><path d="m22 7l-8.97 5.7a1.94 1.94 0 0 1-2.06 0L2 7m16 14a3 3 0 1 0 0-6a3 3 0 0 0 0 6"/><circle cx="18" cy="18" r="3"/><path d="m22 22l-1.5-1.5"/></g></g><g transform="translate(92 91) scale(13.666666666666666 13.666666666666666) translate(0 0)"><g fill="none" stroke="#000000" stroke-linecap="round" stroke-linejoin="round" stroke-width="2"><path d="M22 12.5V6a2 2 0 0 0-2-2H4a2 2 0 0 0-2 2v12c0 1.1.9 2 2 2h7.5"/><path d="m22 7l-8.97 5.7a1.94 1.94 0 0 1-2.06 0L2 7m16 14a3 3 0 1 0 0-6a3 3 0 0 0 0 6"/><circle cx="18" cy="18" r="3"/><path d="m22 22l-1.5-1.5"/></g></g><g transform="translate(93 91) scale(13.666666666666666 13.666666666666666) translate(0 0)"><g fill="none" stroke="#000000" stroke-linecap="round" stroke-linejoin="round" stroke-width="2"><path d="M22 12.5V6a2 2 0 0 0-2-2H4a2 2 0 0 0-2 2v12c0 1.1.9 2 2 2h7.5"/><path d="m22 7l-8.97 5.7a1.94 1.94 0 0 1-2.06 0L2 7m16 14a3 3 0 1 0 0-6a3 3 0 0 0 0 6"/><circle cx="18" cy="18" r="3"/><path d="m22 22l-1.5-1.5"/></g></g>
      <g transform="translate(92 92) scale(13.666666666666666 13.666666666666666) translate(0 0)"><g fill="none" stroke="#FA944B" stroke-linecap="round" stroke-linejoin="round" stroke-width="2"><path d="M22 12.5V6a2 2 0 0 0-2-2H4a2 2 0 0 0-2 2v12c0 1.1.9 2 2 2h7.5"/><path d="m22 7l-8.97 5.7a1.94 1.94 0 0 1-2.06 0L2 7m16 14a3 3 0 1 0 0-6a3 3 0 0 0 0 6"/><circle cx="18" cy="18" r="3"/><path d="m22 22l-1.5-1.5"/></g></g>
    </g>
  </g>
</svg>